<svg xmlns="http://www.w3.org/2000/svg" width="200" height="200" viewBox="0 0 100 100" fill="none">
  <path d="M 85.00 50.00 C 85.23 50.41, 85.46 50.82, 85.67 51.25 C 85.89 51.67, 86.09 52.10, 86.28 52.54 C 86.47 52.97, 86.64 53.42, 86.80 53.87 C 86.95 54.32, 87.09 54.77, 87.21 55.23 C 87.32 55.69, 87.42 56.15, 87.49 56.61 C 87.56 57.07, 87.60 57.54, 87.62 58.00 C 87.64 58.46, 87.64 58.92, 87.61 59.38 C 87.58 59.83, 87.52 60.29, 87.43 60.73 C 87.34 61.18, 87.23 61.62, 87.09 62.05 C 86.95 62.48, 86.78 62.91, 86.59 63.32 C 86.40 63.73, 86.18 64.13, 85.94 64.52 C 85.69 64.91, 85.43 65.28, 85.14 65.64 C 84.85 66.01, 84.54 66.35, 84.21 66.69 C 83.88 67.02, 83.53 67.34, 83.17 67.64 C 82.81 67.94, 82.43 68.23, 82.04 68.50 C 81.65 68.77, 81.25 69.03, 80.84 69.27 C 80.43 69.52, 80.01 69.74, 79.59 69.96 C 79.17 70.18, 78.74 70.38, 78.32 70.57 C 77.89 70.77, 77.46 70.95, 77.03 71.12 C 76.61 71.29, 76.18 71.46, 75.76 71.62 C 75.35 71.78, 74.93 71.93, 74.52 72.08 C 74.12 72.23, 73.72 72.38, 73.33 72.53 C 72.94 72.68, 72.56 72.82, 72.18 72.97 C 71.81 73.12, 71.45 73.28, 71.10 73.44 C 70.75 73.60, 70.41 73.76, 70.08 73.93 C 69.75 74.11, 69.43 74.28, 69.12 74.48 C 68.81 74.67, 68.51 74.87, 68.22 75.08 C 67.93 75.29, 67.65 75.51, 67.37 75.75 C 67.09 75.99, 66.82 76.23, 66.56 76.49 C 66.29 76.75, 66.03 77.03, 65.77 77.31 C 65.51 77.59, 65.25 77.89, 64.99 78.20 C 64.73 78.50, 64.48 78.82, 64.22 79.15 C 63.95 79.47, 63.69 79.81, 63.42 80.15 C 63.15 80.49, 62.88 80.83, 62.60 81.18 C 62.32 81.53, 62.03 81.89, 61.73 82.24 C 61.44 82.59, 61.13 82.94, 60.82 83.29 C 60.50 83.63, 60.17 83.98, 59.84 84.31 C 59.50 84.65, 59.16 84.97, 58.80 85.29 C 58.44 85.60, 58.07 85.91, 57.69 86.19 C 57.31 86.48, 56.92 86.75, 56.52 87.00 C 56.12 87.25, 55.71 87.48, 55.30 87.69 C 54.88 87.90, 54.45 88.09, 54.02 88.25 C 53.59 88.42, 53.15 88.55, 52.70 88.66 C 52.26 88.77, 51.81 88.86, 51.36 88.92 C 50.91 88.97, 50.45 89.00, 50.00 89.00 C 49.55 89.00, 49.09 88.97, 48.64 88.92 C 48.19 88.86, 47.74 88.77, 47.30 88.66 C 46.85 88.55, 46.41 88.42, 45.98 88.25 C 45.55 88.09, 45.12 87.90, 44.70 87.69 C 44.29 87.48, 43.88 87.25, 43.48 87.00 C 43.08 86.75, 42.69 86.48, 42.31 86.19 C 41.93 85.91, 41.56 85.60, 41.20 85.29 C 40.84 84.97, 40.50 84.65, 40.16 84.31 C 39.83 83.98, 39.50 83.63, 39.18 83.29 C 38.87 82.94, 38.56 82.59, 38.27 82.24 C 37.97 81.89, 37.68 81.53, 37.40 81.18 C 37.12 80.83, 36.85 80.49, 36.58 80.15 C 36.31 79.81, 36.05 79.47, 35.78 79.15 C 35.52 78.82, 35.27 78.50, 35.01 78.20 C 34.75 77.89, 34.49 77.59, 34.23 77.31 C 33.97 77.03, 33.71 76.75, 33.44 76.49 C 33.18 76.23, 32.91 75.99, 32.63 75.75 C 32.35 75.51, 32.07 75.29, 31.78 75.08 C 31.49 74.87, 31.19 74.67, 30.88 74.48 C 30.57 74.28, 30.25 74.11, 29.92 73.93 C 29.59 73.76, 29.25 73.60, 28.90 73.44 C 28.55 73.28, 28.19 73.12, 27.82 72.97 C 27.44 72.82, 27.06 72.68, 26.67 72.53 C 26.28 72.38, 25.88 72.23, 25.48 72.08 C 25.07 71.93, 24.65 71.78, 24.24 71.62 C 23.82 71.46, 23.39 71.29, 22.97 71.12 C 22.54 70.95, 22.11 70.77, 21.68 70.57 C 21.26 70.38, 20.83 70.18, 20.41 69.96 C 19.99 69.74, 19.57 69.52, 19.16 69.27 C 18.75 69.03, 18.35 68.77, 17.96 68.50 C 17.57 68.23, 17.19 67.94, 16.83 67.64 C 16.47 67.34, 16.12 67.02, 15.79 66.69 C 15.46 66.35, 15.15 66.01, 14.86 65.64 C 14.57 65.28, 14.31 64.91, 14.06 64.52 C 13.82 64.13, 13.60 63.73, 13.41 63.32 C 13.22 62.91, 13.05 62.48, 12.91 62.05 C 12.77 61.62, 12.66 61.18, 12.57 60.73 C 12.48 60.29, 12.42 59.83, 12.39 59.38 C 12.36 58.92, 12.36 58.46, 12.38 58.00 C 12.40 57.54, 12.44 57.07, 12.51 56.61 C 12.58 56.15, 12.68 55.69, 12.79 55.23 C 12.91 54.77, 13.05 54.32, 13.20 53.87 C 13.36 53.42, 13.53 52.97, 13.72 52.54 C 13.91 52.10, 14.11 51.67, 14.33 51.25 C 14.54 50.82, 14.77 50.41, 15.00 50.00 C 15.23 49.59, 15.47 49.19, 15.72 48.80 C 15.96 48.41, 16.21 48.03, 16.45 47.65 C 16.69 47.28, 16.94 46.91, 17.18 46.55 C 17.42 46.19, 17.66 45.84, 17.89 45.49 C 18.11 45.14, 18.34 44.79, 18.55 44.45 C 18.76 44.11, 18.96 43.78, 19.15 43.44 C 19.34 43.11, 19.52 42.78, 19.69 42.44 C 19.85 42.11, 20.00 41.78, 20.14 41.44 C 20.28 41.10, 20.41 40.76, 20.52 40.42 C 20.63 40.08, 20.73 39.73, 20.81 39.38 C 20.90 39.02, 20.97 38.66, 21.03 38.30 C 21.10 37.93, 21.15 37.56, 21.19 37.17 C 21.23 36.79, 21.27 36.40, 21.30 36.00 C 21.33 35.60, 21.35 35.19, 21.37 34.78 C 21.39 34.36, 21.40 33.93, 21.42 33.50 C 21.44 33.07, 21.46 32.63, 21.48 32.18 C 21.50 31.73, 21.53 31.28, 21.56 30.82 C 21.59 30.36, 21.63 29.89, 21.68 29.43 C 21.74 28.96, 21.80 28.49, 21.87 28.02 C 21.95 27.56, 22.04 27.09, 22.14 26.62 C 22.25 26.16, 22.36 25.70, 22.50 25.24 C 22.64 24.79, 22.80 24.34, 22.97 23.90 C 23.15 23.46, 23.34 23.03, 23.56 22.62 C 23.77 22.20, 24.01 21.80, 24.26 21.42 C 24.52 21.03, 24.79 20.66, 25.09 20.31 C 25.38 19.96, 25.69 19.63, 26.03 19.32 C 26.36 19.01, 26.71 18.71, 27.08 18.45 C 27.44 18.18, 27.83 17.94, 28.23 17.72 C 28.62 17.50, 29.04 17.30, 29.46 17.13 C 29.88 16.96, 30.32 16.81, 30.77 16.69 C 31.21 16.57, 31.67 16.47, 32.13 16.39 C 32.59 16.32, 33.06 16.26, 33.53 16.23 C 34.00 16.20, 34.48 16.19, 34.95 16.20 C 35.43 16.21, 35.90 16.24, 36.38 16.28 C 36.85 16.32, 37.32 16.39, 37.79 16.46 C 38.26 16.53, 38.73 16.62, 39.18 16.71 C 39.64 16.81, 40.10 16.91, 40.54 17.02 C 40.99 17.13, 41.43 17.25, 41.86 17.37 C 42.30 17.48, 42.72 17.61, 43.14 17.72 C 43.56 17.84, 43.97 17.95, 44.37 18.06 C 44.77 18.17, 45.17 18.28, 45.56 18.37 C 45.94 18.47, 46.33 18.56, 46.70 18.64 C 47.08 18.71, 47.45 18.78, 47.82 18.83 C 48.19 18.89, 48.55 18.93, 48.92 18.96 C 49.28 18.99, 49.64 19.00, 50.00 19.00 C 50.36 19.00, 50.72 18.99, 51.08 18.96 C 51.45 18.93, 51.81 18.89, 52.18 18.83 C 52.55 18.78, 52.92 18.71, 53.30 18.64 C 53.67 18.56, 54.06 18.47, 54.44 18.37 C 54.83 18.28, 55.23 18.17, 55.63 18.06 C 56.03 17.95, 56.44 17.84, 56.86 17.72 C 57.28 17.61, 57.70 17.48, 58.14 17.37 C 58.57 17.25, 59.01 17.13, 59.46 17.02 C 59.90 16.91, 60.36 16.81, 60.82 16.71 C 61.27 16.62, 61.74 16.53, 62.21 16.46 C 62.68 16.39, 63.15 16.32, 63.62 16.28 C 64.10 16.24, 64.57 16.21, 65.05 16.20 C 65.52 16.19, 66.00 16.20, 66.47 16.23 C 66.94 16.26, 67.41 16.32, 67.87 16.39 C 68.33 16.47, 68.79 16.57, 69.23 16.69 C 69.68 16.81, 70.12 16.96, 70.54 17.13 C 70.96 17.30, 71.38 17.50, 71.77 17.72 C 72.17 17.94, 72.56 18.18, 72.92 18.45 C 73.29 18.71, 73.64 19.01, 73.97 19.32 C 74.31 19.63, 74.62 19.96, 74.91 20.31 C 75.21 20.66, 75.48 21.03, 75.74 21.42 C 75.99 21.80, 76.23 22.20, 76.44 22.62 C 76.66 23.03, 76.85 23.46, 77.03 23.90 C 77.20 24.34, 77.36 24.79, 77.50 25.24 C 77.64 25.70, 77.75 26.16, 77.86 26.62 C 77.96 27.09, 78.05 27.56, 78.13 28.02 C 78.20 28.49, 78.26 28.96, 78.32 29.43 C 78.37 29.89, 78.41 30.36, 78.44 30.82 C 78.47 31.28, 78.50 31.73, 78.52 32.18 C 78.54 32.63, 78.56 33.07, 78.58 33.50 C 78.60 33.93, 78.61 34.36, 78.63 34.78 C 78.65 35.19, 78.67 35.60, 78.70 36.00 C 78.73 36.40, 78.77 36.79, 78.81 37.17 C 78.85 37.56, 78.90 37.93, 78.97 38.30 C 79.03 38.66, 79.10 39.02, 79.19 39.38 C 79.27 39.73, 79.37 40.08, 79.48 40.42 C 79.59 40.76, 79.72 41.10, 79.86 41.44 C 80.00 41.78, 80.15 42.11, 80.31 42.44 C 80.48 42.78, 80.66 43.11, 80.85 43.44 C 81.04 43.78, 81.24 44.11, 81.45 44.45 C 81.66 44.79, 81.89 45.14, 82.11 45.49 C 82.34 45.84, 82.58 46.19, 82.82 46.55 C 83.06 46.91, 83.31 47.28, 83.55 47.65 C 83.79 48.03, 84.04 48.41, 84.28 48.80 C 84.53 49.19, 84.77 49.59, 85.00 50.00 Z" stroke="#FFFFFF" stroke-width="8.5" stroke-linejoin="round" fill="none"/>
</svg>