<svg xmlns="http://www.w3.org/2000/svg" viewBox="0 0 32 32" width="32" height="32">
  <!-- Wavy O: 8-bump undulating ring -->
  <path d="
    M 16 1
    Q 20 2.5, 22.5 3.5
    Q 25 1, 27.5 4.5
    Q 30 8, 28.5 9.5
    Q 31 13, 29 16
    Q 31 19, 28.5 22.5
    Q 30 26, 27.5 27.5
    Q 25 31, 22.5 28.5
    Q 19 31, 16 31
    Q 13 31, 9.5 28.5
    Q 7 31, 4.5 27.5
    Q 2 26, 3.5 22.5
    Q 1 19, 3 16
    Q 1 13, 3.5 9.5
    Q 2 6, 4.5 4.5
    Q 7 1, 9.5 3.5
    Q 12 1, 16 1
    Z
    M 16 8
    Q 13.5 8, 12.5 9.5
    Q 10 8.5, 9.5 10.5
    Q 7.5 11, 8 13
    Q 7 14.5, 8 16
    Q 7 17.5, 8 19
    Q 7.5 21, 9.5 21.5
    Q 10 23.5, 12.5 22.5
    Q 13.5 24, 16 24
    Q 18.5 24, 19.5 22.5
    Q 22 23.5, 22.5 21.5
    Q 24.5 21, 24 19
    Q 25 17.5, 24 16
    Q 25 14.5, 24 13
    Q 24.5 11, 22.5 10.5
    Q 22 8.5, 19.5 9.5
    Q 18.5 8, 16 8
    Z
  " fill="#111111" fill-rule="evenodd"/>
</svg>
